<svg width="24" height="24" viewBox="0 0 24 24" fill="none" xmlns="http://www.w3.org/2000/svg">
<path d="M11.4697 6.69665L13.3258 4.8405C14.3678 3.79761 15.887 3.39002 17.311 3.77134C18.735 4.15267 19.8473 5.26494 20.2286 6.68894C20.61 8.11295 20.2024 9.63221 19.1595 10.6741L16.5078 13.3258C15.7342 14.0994 14.685 14.534 13.591 14.534C12.497 14.534 11.4478 14.0994 10.6742 13.3258" stroke="white" stroke-width="1.5" stroke-linecap="round" stroke-linejoin="round"/>
<path d="M12.5303 17.3031L10.6742 19.1593C9.63227 20.2022 8.11301 20.6098 6.689 20.2284C5.265 19.8471 4.15273 18.7348 3.7714 17.3108C3.39008 15.8868 3.79767 14.3676 4.84056 13.3257L7.49221 10.674C8.2658 9.90042 9.31501 9.46582 10.409 9.46582C11.503 9.46582 12.5523 9.90042 13.3258 10.674" stroke="white" stroke-width="1.5" stroke-linecap="round" stroke-linejoin="round"/>
</svg>
